# xmcd CD database file
#
# Track frame offsets:
#	150
#	45612
#	89654
#	130186
#
# Disc length: 2589 seconds
#
# Revision: 0
# Processed by: cddbd v1.5.2PL0 Copyright (c) Steve Scherf et al.
# Submitted via: CDex 1.50Beta7
#
DISCID=300a1b04
DTITLE=New Presentation - Live
DYEAR=1983
DGENRE=Jazz
TTITLE0=So What
TTITLE1=32 Takty Dla Aluhenia
TTITLE2=Jego Turbolencja Pan Alex
TTITLE3=G³ód Na Pok³adzie
EXTD=YEAR: 1983
EXTT0=
EXTT1=
EXTT2=
EXTT3=
PLAYORDER=
